{
    "asset" : {
        "generator" : "Khronos glTF Blender I/O v1.1.46",
        "version" : "2.0"
    },
    "scene" : 0,
    "scenes" : [
        {
            "name" : "Scene",
            "nodes" : [
                1,
                2,
                3,
                4
            ]
        }
    ],
    "nodes" : [
        {
            "mesh" : 0,
            "name" : "tree_circle",
            "rotation" : [
                0.7071068286895752,
                0,
                0,
                0.7071067094802856
            ]
        },
        {
            "children" : [
                0
            ],
            "mesh" : 1,
            "name" : "Plane"
        },
        {
            "mesh" : 2,
            "name" : "red_flower",
            "translation" : [
                5.559704780578613,
                0,
                14.849245071411133
            ]
        },
        {
            "mesh" : 3,
            "name" : "flower_blue",
            "translation" : [
                -5.791275501251221,
                0,
                12.194731712341309
            ]
        },
        {
            "mesh" : 4,
            "name" : "flower_white",
            "translation" : [
                4.588936805725098,
                0,
                -9.389619827270508
            ]
        }
    ],
    "materials" : [
        {
            "doubleSided" : true,
            "emissiveFactor" : [
                0,
                0,
                0
            ],
            "name" : "palette",
            "pbrMetallicRoughness" : {
                "baseColorTexture" : {
                    "index" : 0,
                    "texCoord" : 0
                },
                "metallicFactor" : 0,
                "roughnessFactor" : 1
            }
        },
        {
            "doubleSided" : true,
            "emissiveFactor" : [
                0,
                0,
                0
            ],
            "name" : "Ground",
            "pbrMetallicRoughness" : {
                "baseColorTexture" : {
                    "index" : 1,
                    "texCoord" : 0
                },
                "metallicFactor" : 0,
                "roughnessFactor" : 0.5
            }
        },
        {
            "doubleSided" : true,
            "emissiveFactor" : [
                0,
                0,
                0
            ],
            "name" : "Green.001",
            "pbrMetallicRoughness" : {
                "baseColorFactor" : [
                    0,
                    0.8000000715255737,
                    0,
                    1
                ],
                "metallicFactor" : 0,
                "roughnessFactor" : 0.4000000059604645
            }
        },
        {
            "doubleSided" : true,
            "emissiveFactor" : [
                0,
                0,
                0
            ],
            "name" : "Yellow.001",
            "pbrMetallicRoughness" : {
                "baseColorFactor" : [
                    1,
                    0.6666970252990723,
                    0.11369988322257996,
                    1
                ],
                "metallicFactor" : 0,
                "roughnessFactor" : 0.4000000059604645
            }
        },
        {
            "doubleSided" : true,
            "emissiveFactor" : [
                0,
                0,
                0
            ],
            "name" : "Red",
            "pbrMetallicRoughness" : {
                "baseColorFactor" : [
                    0.800000011920929,
                    0,
                    0,
                    1
                ],
                "metallicFactor" : 0,
                "roughnessFactor" : 0.4000000059604645
            }
        },
        {
            "doubleSided" : true,
            "emissiveFactor" : [
                0,
                0,
                0
            ],
            "name" : "Green.005",
            "pbrMetallicRoughness" : {
                "baseColorFactor" : [
                    0.0768791139125824,
                    0.8000000715255737,
                    0,
                    1
                ],
                "metallicFactor" : 0,
                "roughnessFactor" : 0.4000000059604645
            }
        },
        {
            "doubleSided" : true,
            "emissiveFactor" : [
                0,
                0,
                0
            ],
            "name" : "Yellow.005",
            "pbrMetallicRoughness" : {
                "baseColorFactor" : [
                    1,
                    0.6666970252990723,
                    0.11369988322257996,
                    1
                ],
                "metallicFactor" : 0,
                "roughnessFactor" : 0.4000000059604645
            }
        },
        {
            "doubleSided" : true,
            "emissiveFactor" : [
                0,
                0,
                0
            ],
            "name" : "Blue.002",
            "pbrMetallicRoughness" : {
                "baseColorFactor" : [
                    0.019500000402331352,
                    0.7646999955177307,
                    0.8666999936103821,
                    1
                ],
                "metallicFactor" : 0,
                "roughnessFactor" : 0.4000000059604645
            }
        },
        {
            "doubleSided" : true,
            "emissiveFactor" : [
                0,
                0,
                0
            ],
            "name" : "Green.007",
            "pbrMetallicRoughness" : {
                "baseColorFactor" : [
                    0.0768791139125824,
                    0.8000000715255737,
                    0,
                    1
                ],
                "metallicFactor" : 0,
                "roughnessFactor" : 0.4000000059604645
            }
        },
        {
            "doubleSided" : true,
            "emissiveFactor" : [
                0,
                0,
                0
            ],
            "name" : "Yellow.007",
            "pbrMetallicRoughness" : {
                "baseColorFactor" : [
                    1,
                    0.6666970252990723,
                    0.11369988322257996,
                    1
                ],
                "metallicFactor" : 0,
                "roughnessFactor" : 0.4000000059604645
            }
        },
        {
            "doubleSided" : true,
            "emissiveFactor" : [
                0,
                0,
                0
            ],
            "name" : "White.003",
            "pbrMetallicRoughness" : {
                "baseColorFactor" : [
                    1,
                    1,
                    1,
                    1
                ],
                "metallicFactor" : 0,
                "roughnessFactor" : 0.4000000059604645
            }
        }
    ],
    "meshes" : [
        {
            "name" : "tree_circle",
            "primitives" : [
                {
                    "attributes" : {
                        "POSITION" : 0,
                        "NORMAL" : 1,
                        "TEXCOORD_0" : 2
                    },
                    "indices" : 3,
                    "material" : 0
                }
            ]
        },
        {
            "name" : "Plane",
            "primitives" : [
                {
                    "attributes" : {
                        "POSITION" : 4,
                        "NORMAL" : 5,
                        "TEXCOORD_0" : 6
                    },
                    "indices" : 7,
                    "material" : 1
                }
            ]
        },
        {
            "name" : "Cube.003",
            "primitives" : [
                {
                    "attributes" : {
                        "POSITION" : 8,
                        "NORMAL" : 9,
                        "TEXCOORD_0" : 10
                    },
                    "indices" : 11,
                    "material" : 2
                },
                {
                    "attributes" : {
                        "POSITION" : 12,
                        "NORMAL" : 13,
                        "TEXCOORD_0" : 14
                    },
                    "indices" : 15,
                    "material" : 3
                },
                {
                    "attributes" : {
                        "POSITION" : 16,
                        "NORMAL" : 17,
                        "TEXCOORD_0" : 18
                    },
                    "indices" : 19,
                    "material" : 4
                }
            ]
        },
        {
            "name" : "Cube.024",
            "primitives" : [
                {
                    "attributes" : {
                        "POSITION" : 20,
                        "NORMAL" : 21,
                        "TEXCOORD_0" : 22
                    },
                    "indices" : 11,
                    "material" : 5
                },
                {
                    "attributes" : {
                        "POSITION" : 23,
                        "NORMAL" : 24,
                        "TEXCOORD_0" : 25
                    },
                    "indices" : 15,
                    "material" : 6
                },
                {
                    "attributes" : {
                        "POSITION" : 26,
                        "NORMAL" : 27,
                        "TEXCOORD_0" : 28
                    },
                    "indices" : 19,
                    "material" : 7
                }
            ]
        },
        {
            "name" : "Cube.026",
            "primitives" : [
                {
                    "attributes" : {
                        "POSITION" : 29,
                        "NORMAL" : 30,
                        "TEXCOORD_0" : 31
                    },
                    "indices" : 11,
                    "material" : 8
                },
                {
                    "attributes" : {
                        "POSITION" : 32,
                        "NORMAL" : 33,
                        "TEXCOORD_0" : 34
                    },
                    "indices" : 15,
                    "material" : 9
                },
                {
                    "attributes" : {
                        "POSITION" : 35,
                        "NORMAL" : 36,
                        "TEXCOORD_0" : 37
                    },
                    "indices" : 19,
                    "material" : 10
                }
            ]
        }
    ],
    "textures" : [
        {
            "source" : 0
        },
        {
            "source" : 1
        }
    ],
    "images" : [
        {
            "mimeType" : "image/png",
            "name" : "tree_circle",
            "uri" : "tree_circle.png"
        },
        {
            "mimeType" : "image/jpeg",
            "name" : "grass",
            "uri" : "grass.jpg"
        }
    ],
    "accessors" : [
        {
            "bufferView" : 0,
            "componentType" : 5126,
            "count" : 912,
            "max" : [
                6,
                6,
                0
            ],
            "min" : [
                -6,
                -6,
                -18
            ],
            "type" : "VEC3"
        },
        {
            "bufferView" : 1,
            "componentType" : 5126,
            "count" : 912,
            "type" : "VEC3"
        },
        {
            "bufferView" : 2,
            "componentType" : 5126,
            "count" : 912,
            "type" : "VEC2"
        },
        {
            "bufferView" : 3,
            "componentType" : 5123,
            "count" : 1812,
            "type" : "SCALAR"
        },
        {
            "bufferView" : 4,
            "componentType" : 5126,
            "count" : 4,
            "max" : [
                150,
                0,
                150
            ],
            "min" : [
                -150,
                0,
                -150
            ],
            "type" : "VEC3"
        },
        {
            "bufferView" : 5,
            "componentType" : 5126,
            "count" : 4,
            "type" : "VEC3"
        },
        {
            "bufferView" : 6,
            "componentType" : 5126,
            "count" : 4,
            "type" : "VEC2"
        },
        {
            "bufferView" : 7,
            "componentType" : 5123,
            "count" : 6,
            "type" : "SCALAR"
        },
        {
            "bufferView" : 8,
            "componentType" : 5126,
            "count" : 120,
            "max" : [
                0.9000000357627869,
                1.7999999523162842,
                0.30000001192092896
            ],
            "min" : [
                -0.9000000357627869,
                0,
                -1.5
            ],
            "type" : "VEC3"
        },
        {
            "bufferView" : 9,
            "componentType" : 5126,
            "count" : 120,
            "type" : "VEC3"
        },
        {
            "bufferView" : 10,
            "componentType" : 5126,
            "count" : 120,
            "type" : "VEC2"
        },
        {
            "bufferView" : 11,
            "componentType" : 5123,
            "count" : 180,
            "type" : "SCALAR"
        },
        {
            "bufferView" : 12,
            "componentType" : 5126,
            "count" : 24,
            "max" : [
                0.30000001192092896,
                2.4000000953674316,
                -0.30000001192092896
            ],
            "min" : [
                -0.30000001192092896,
                1.7999999523162842,
                -0.9000000357627869
            ],
            "type" : "VEC3"
        },
        {
            "bufferView" : 13,
            "componentType" : 5126,
            "count" : 24,
            "type" : "VEC3"
        },
        {
            "bufferView" : 14,
            "componentType" : 5126,
            "count" : 24,
            "type" : "VEC2"
        },
        {
            "bufferView" : 15,
            "componentType" : 5123,
            "count" : 36,
            "type" : "SCALAR"
        },
        {
            "bufferView" : 16,
            "componentType" : 5126,
            "count" : 96,
            "max" : [
                0.9000000357627869,
                2.4000000953674316,
                0.30000001192092896
            ],
            "min" : [
                -0.9000000357627869,
                1.7999999523162842,
                -1.5
            ],
            "type" : "VEC3"
        },
        {
            "bufferView" : 17,
            "componentType" : 5126,
            "count" : 96,
            "type" : "VEC3"
        },
        {
            "bufferView" : 18,
            "componentType" : 5126,
            "count" : 96,
            "type" : "VEC2"
        },
        {
            "bufferView" : 19,
            "componentType" : 5123,
            "count" : 144,
            "type" : "SCALAR"
        },
        {
            "bufferView" : 20,
            "componentType" : 5126,
            "count" : 120,
            "max" : [
                0.9000000357627869,
                1.7999999523162842,
                0.9000000357627869
            ],
            "min" : [
                -0.9000000357627869,
                0,
                -0.9000000357627869
            ],
            "type" : "VEC3"
        },
        {
            "bufferView" : 21,
            "componentType" : 5126,
            "count" : 120,
            "type" : "VEC3"
        },
        {
            "bufferView" : 22,
            "componentType" : 5126,
            "count" : 120,
            "type" : "VEC2"
        },
        {
            "bufferView" : 23,
            "componentType" : 5126,
            "count" : 24,
            "max" : [
                0.30000001192092896,
                2.4000000953674316,
                0.30000001192092896
            ],
            "min" : [
                -0.30000001192092896,
                1.7999999523162842,
                -0.30000001192092896
            ],
            "type" : "VEC3"
        },
        {
            "bufferView" : 24,
            "componentType" : 5126,
            "count" : 24,
            "type" : "VEC3"
        },
        {
            "bufferView" : 25,
            "componentType" : 5126,
            "count" : 24,
            "type" : "VEC2"
        },
        {
            "bufferView" : 26,
            "componentType" : 5126,
            "count" : 96,
            "max" : [
                0.9000000357627869,
                2.4000000953674316,
                0.9000000357627869
            ],
            "min" : [
                -0.9000000357627869,
                1.7999999523162842,
                -0.9000000357627869
            ],
            "type" : "VEC3"
        },
        {
            "bufferView" : 27,
            "componentType" : 5126,
            "count" : 96,
            "type" : "VEC3"
        },
        {
            "bufferView" : 28,
            "componentType" : 5126,
            "count" : 96,
            "type" : "VEC2"
        },
        {
            "bufferView" : 29,
            "componentType" : 5126,
            "count" : 120,
            "max" : [
                0.9000000357627869,
                1.7999999523162842,
                0.9000000357627869
            ],
            "min" : [
                -0.9000000357627869,
                0,
                -0.9000000357627869
            ],
            "type" : "VEC3"
        },
        {
            "bufferView" : 30,
            "componentType" : 5126,
            "count" : 120,
            "type" : "VEC3"
        },
        {
            "bufferView" : 31,
            "componentType" : 5126,
            "count" : 120,
            "type" : "VEC2"
        },
        {
            "bufferView" : 32,
            "componentType" : 5126,
            "count" : 24,
            "max" : [
                0.30000001192092896,
                2.4000000953674316,
                0.30000001192092896
            ],
            "min" : [
                -0.30000001192092896,
                1.7999999523162842,
                -0.30000001192092896
            ],
            "type" : "VEC3"
        },
        {
            "bufferView" : 33,
            "componentType" : 5126,
            "count" : 24,
            "type" : "VEC3"
        },
        {
            "bufferView" : 34,
            "componentType" : 5126,
            "count" : 24,
            "type" : "VEC2"
        },
        {
            "bufferView" : 35,
            "componentType" : 5126,
            "count" : 96,
            "max" : [
                0.9000000357627869,
                2.4000000953674316,
                0.9000000357627869
            ],
            "min" : [
                -0.9000000357627869,
                1.7999999523162842,
                -0.9000000357627869
            ],
            "type" : "VEC3"
        },
        {
            "bufferView" : 36,
            "componentType" : 5126,
            "count" : 96,
            "type" : "VEC3"
        },
        {
            "bufferView" : 37,
            "componentType" : 5126,
            "count" : 96,
            "type" : "VEC2"
        }
    ],
    "bufferViews" : [
        {
            "buffer" : 0,
            "byteLength" : 10944,
            "byteOffset" : 0
        },
        {
            "buffer" : 0,
            "byteLength" : 10944,
            "byteOffset" : 10944
        },
        {
            "buffer" : 0,
            "byteLength" : 7296,
            "byteOffset" : 21888
        },
        {
            "buffer" : 0,
            "byteLength" : 3624,
            "byteOffset" : 29184
        },
        {
            "buffer" : 0,
            "byteLength" : 48,
            "byteOffset" : 32808
        },
        {
            "buffer" : 0,
            "byteLength" : 48,
            "byteOffset" : 32856
        },
        {
            "buffer" : 0,
            "byteLength" : 32,
            "byteOffset" : 32904
        },
        {
            "buffer" : 0,
            "byteLength" : 12,
            "byteOffset" : 32936
        },
        {
            "buffer" : 0,
            "byteLength" : 1440,
            "byteOffset" : 32948
        },
        {
            "buffer" : 0,
            "byteLength" : 1440,
            "byteOffset" : 34388
        },
        {
            "buffer" : 0,
            "byteLength" : 960,
            "byteOffset" : 35828
        },
        {
            "buffer" : 0,
            "byteLength" : 360,
            "byteOffset" : 36788
        },
        {
            "buffer" : 0,
            "byteLength" : 288,
            "byteOffset" : 37148
        },
        {
            "buffer" : 0,
            "byteLength" : 288,
            "byteOffset" : 37436
        },
        {
            "buffer" : 0,
            "byteLength" : 192,
            "byteOffset" : 37724
        },
        {
            "buffer" : 0,
            "byteLength" : 72,
            "byteOffset" : 37916
        },
        {
            "buffer" : 0,
            "byteLength" : 1152,
            "byteOffset" : 37988
        },
        {
            "buffer" : 0,
            "byteLength" : 1152,
            "byteOffset" : 39140
        },
        {
            "buffer" : 0,
            "byteLength" : 768,
            "byteOffset" : 40292
        },
        {
            "buffer" : 0,
            "byteLength" : 288,
            "byteOffset" : 41060
        },
        {
            "buffer" : 0,
            "byteLength" : 1440,
            "byteOffset" : 41348
        },
        {
            "buffer" : 0,
            "byteLength" : 1440,
            "byteOffset" : 42788
        },
        {
            "buffer" : 0,
            "byteLength" : 960,
            "byteOffset" : 44228
        },
        {
            "buffer" : 0,
            "byteLength" : 288,
            "byteOffset" : 45188
        },
        {
            "buffer" : 0,
            "byteLength" : 288,
            "byteOffset" : 45476
        },
        {
            "buffer" : 0,
            "byteLength" : 192,
            "byteOffset" : 45764
        },
        {
            "buffer" : 0,
            "byteLength" : 1152,
            "byteOffset" : 45956
        },
        {
            "buffer" : 0,
            "byteLength" : 1152,
            "byteOffset" : 47108
        },
        {
            "buffer" : 0,
            "byteLength" : 768,
            "byteOffset" : 48260
        },
        {
            "buffer" : 0,
            "byteLength" : 1440,
            "byteOffset" : 49028
        },
        {
            "buffer" : 0,
            "byteLength" : 1440,
            "byteOffset" : 50468
        },
        {
            "buffer" : 0,
            "byteLength" : 960,
            "byteOffset" : 51908
        },
        {
            "buffer" : 0,
            "byteLength" : 288,
            "byteOffset" : 52868
        },
        {
            "buffer" : 0,
            "byteLength" : 288,
            "byteOffset" : 53156
        },
        {
            "buffer" : 0,
            "byteLength" : 192,
            "byteOffset" : 53444
        },
        {
            "buffer" : 0,
            "byteLength" : 1152,
            "byteOffset" : 53636
        },
        {
            "buffer" : 0,
            "byteLength" : 1152,
            "byteOffset" : 54788
        },
        {
            "buffer" : 0,
            "byteLength" : 768,
            "byteOffset" : 55940
        }
    ],
    "buffers" : [
        {
            "byteLength" : 56708,
            "uri" : "main_level.bin"
        }
    ]
}
